<svg xmlns="http://www.w3.org/2000/svg" xmlns:svg="http://www.w3.org/2000/svg" id="svg2" width="744.094" height="1052.362"><metadata id="metadata7"/><g id="layer2" display="inline"><rect id="rect3483" width="695" height="90" x="20" y="222.362" fill="#5fd35f" fill-opacity="1" fill-rule="nonzero" stroke="none" stroke-dasharray="none" stroke-dashoffset="0" stroke-linecap="butt" stroke-linejoin="miter" stroke-miterlimit="4" stroke-opacity="1" stroke-width="1" marker-end="none" marker-mid="none" marker-start="none" display="inline" enable-background="accumulate" opacity="1" overflow="visible" visibility="visible" style="marker:none"/></g><g id="layer1" display="inline"><g id="g3301"><rect id="rect2385" width="30" height="90" x="20" y="32.362" fill="#5fd35f"/><rect id="rect2387" width="30" height="90" x="55" y="32.362" fill="#5fd35f"/><rect id="rect2389" width="40" height="90" x="90" y="32.362" fill="#5fd35f"/><rect id="rect2391" width="20" height="90" x="135" y="32.362" fill="#5fd35f"/><rect id="rect2393" width="40" height="90" x="160" y="32.362" fill="#5fd35f"/><rect id="rect2395" width="30" height="90" x="205" y="32.362" fill="#5fd35f"/><rect id="rect2397" width="25" height="90" x="240" y="32.362" fill="#5fd35f"/><rect id="rect2399" width="40" height="90" x="270" y="32.362" fill="#5fd35f"/><rect id="rect2401" width="35" height="90" x="315" y="32.362" fill="#5fd35f"/><rect id="rect2403" width="25" height="90" x="355" y="32.362" fill="#5fd35f"/><rect id="rect2407" width="30" height="90" x="385" y="32.362" fill="#5fd35f"/><rect id="rect2409" width="30" height="90" x="420" y="32.362" fill="#5fd35f"/><rect id="rect2411" width="35" height="90" x="455" y="32.362" fill="#5fd35f"/><rect id="rect2413" width="35" height="90" x="495" y="32.362" fill="#5fd35f"/><rect id="rect2415" width="30" height="90" x="535" y="32.362" fill="#5fd35f"/><rect id="rect2417" width="25" height="90" x="570" y="32.362" fill="#5fd35f"/><rect id="rect2419" width="40" height="90" x="600" y="32.362" fill="#5fd35f"/><rect id="rect2421" width="30" height="90" x="645" y="32.362" fill="#5fd35f"/><rect id="rect2423" width="35" height="90" x="680" y="32.362" fill="#5fd35f"/><text id="text2445" x="-107.362" y="40" fill="#000" fill-opacity="1" stroke="none" stroke-linecap="butt" stroke-linejoin="miter" stroke-opacity="1" stroke-width="1" font-family="Bitstream Vera Sans" font-size="18" font-style="normal" font-weight="normal" transform="matrix(0,-1,1,0,0,0)" xml:space="preserve"><tspan id="tspan2447" x="-107.362" y="40">packet</tspan></text><text id="text2449" x="-107.362" y="75" fill="#000" fill-opacity="1" stroke="none" stroke-linecap="butt" stroke-linejoin="miter" stroke-opacity="1" stroke-width="1" font-family="Bitstream Vera Sans" font-size="18" font-style="normal" font-weight="normal" transform="matrix(0,-1,1,0,0,0)" xml:space="preserve"><tspan id="tspan2451" x="-107.362" y="75">packet</tspan></text><text id="text2453" x="-107.362" y="115" fill="#000" fill-opacity="1" stroke="none" stroke-linecap="butt" stroke-linejoin="miter" stroke-opacity="1" stroke-width="1" font-family="Bitstream Vera Sans" font-size="18" font-style="normal" font-weight="normal" transform="matrix(0,-1,1,0,0,0)" xml:space="preserve"><tspan id="tspan2455" x="-107.362" y="115">packet</tspan></text><text id="text2457" x="-107.362" y="150" fill="#000" fill-opacity="1" stroke="none" stroke-linecap="butt" stroke-linejoin="miter" stroke-opacity="1" stroke-width="1" font-family="Bitstream Vera Sans" font-size="18" font-style="normal" font-weight="normal" transform="matrix(0,-1,1,0,0,0)" xml:space="preserve"><tspan id="tspan2459" x="-107.362" y="150">packet</tspan></text><text id="text2461" x="-107.362" y="185" fill="#000" fill-opacity="1" stroke="none" stroke-linecap="butt" stroke-linejoin="miter" stroke-opacity="1" stroke-width="1" font-family="Bitstream Vera Sans" font-size="18" font-style="normal" font-weight="normal" transform="matrix(0,-1,1,0,0,0)" xml:space="preserve"><tspan id="tspan2463" x="-107.362" y="185">packet</tspan></text><text id="text2465" x="-107.362" y="225" fill="#000" fill-opacity="1" stroke="none" stroke-linecap="butt" stroke-linejoin="miter" stroke-opacity="1" stroke-width="1" font-family="Bitstream Vera Sans" font-size="18" font-style="normal" font-weight="normal" transform="matrix(0,-1,1,0,0,0)" xml:space="preserve"><tspan id="tspan2467" x="-107.362" y="225">packet</tspan></text><text id="text2469" x="-107.362" y="258.03" fill="#000" fill-opacity="1" stroke="none" stroke-linecap="butt" stroke-linejoin="miter" stroke-opacity="1" stroke-width="1" font-family="Bitstream Vera Sans" font-size="18" font-style="normal" font-weight="normal" transform="matrix(0,-1,1,0,0,0)" xml:space="preserve"><tspan id="tspan2471" x="-107.362" y="258.03">packet</tspan></text><text id="text2473" x="-107.362" y="295" fill="#000" fill-opacity="1" stroke="none" stroke-linecap="butt" stroke-linejoin="miter" stroke-opacity="1" stroke-width="1" font-family="Bitstream Vera Sans" font-size="18" font-style="normal" font-weight="normal" transform="matrix(0,-1,1,0,0,0)" xml:space="preserve"><tspan id="tspan2475" x="-107.362" y="295">packet</tspan></text><text id="text2477" x="-107.362" y="338.485" fill="#000" fill-opacity="1" stroke="none" stroke-linecap="butt" stroke-linejoin="miter" stroke-opacity="1" stroke-width="1" font-family="Bitstream Vera Sans" font-size="18" font-style="normal" font-weight="normal" transform="matrix(0,-1,1,0,0,0)" xml:space="preserve"><tspan id="tspan2479" x="-107.362" y="338.485">packet</tspan></text><text id="text2481" x="-107.362" y="373.485" fill="#000" fill-opacity="1" stroke="none" stroke-linecap="butt" stroke-linejoin="miter" stroke-opacity="1" stroke-width="1" font-family="Bitstream Vera Sans" font-size="18" font-style="normal" font-weight="normal" transform="matrix(0,-1,1,0,0,0)" xml:space="preserve"><tspan id="tspan2483" x="-107.362" y="373.485">packet</tspan></text><text id="text2485" x="-107.362" y="405" fill="#000" fill-opacity="1" stroke="none" stroke-linecap="butt" stroke-linejoin="miter" stroke-opacity="1" stroke-width="1" font-family="Bitstream Vera Sans" font-size="18" font-style="normal" font-weight="normal" transform="matrix(0,-1,1,0,0,0)" xml:space="preserve"><tspan id="tspan2487" x="-107.362" y="405">packet</tspan></text><text id="text2489" x="-107.362" y="440" fill="#000" fill-opacity="1" stroke="none" stroke-linecap="butt" stroke-linejoin="miter" stroke-opacity="1" stroke-width="1" font-family="Bitstream Vera Sans" font-size="18" font-style="normal" font-weight="normal" transform="matrix(0,-1,1,0,0,0)" xml:space="preserve"><tspan id="tspan2491" x="-107.362" y="440">packet</tspan></text><text id="text2493" x="-107.362" y="478.03" fill="#000" fill-opacity="1" stroke="none" stroke-linecap="butt" stroke-linejoin="miter" stroke-opacity="1" stroke-width="1" font-family="Bitstream Vera Sans" font-size="18" font-style="normal" font-weight="normal" transform="matrix(0,-1,1,0,0,0)" xml:space="preserve"><tspan id="tspan2495" x="-107.362" y="478.03">packet</tspan></text><text id="text2497" x="-107.362" y="518.03" fill="#000" fill-opacity="1" stroke="none" stroke-linecap="butt" stroke-linejoin="miter" stroke-opacity="1" stroke-width="1" font-family="Bitstream Vera Sans" font-size="18" font-style="normal" font-weight="normal" transform="matrix(0,-1,1,0,0,0)" xml:space="preserve"><tspan id="tspan2499" x="-107.362" y="518.03">packet</tspan></text><text id="text2501" x="-107.362" y="555" fill="#000" fill-opacity="1" stroke="none" stroke-linecap="butt" stroke-linejoin="miter" stroke-opacity="1" stroke-width="1" font-family="Bitstream Vera Sans" font-size="18" font-style="normal" font-weight="normal" transform="matrix(0,-1,1,0,0,0)" xml:space="preserve"><tspan id="tspan2503" x="-107.362" y="555">packet</tspan></text><text id="text2505" x="-107.362" y="588.485" fill="#000" fill-opacity="1" stroke="none" stroke-linecap="butt" stroke-linejoin="miter" stroke-opacity="1" stroke-width="1" font-family="Bitstream Vera Sans" font-size="18" font-style="normal" font-weight="normal" transform="matrix(0,-1,1,0,0,0)" xml:space="preserve"><tspan id="tspan2507" x="-107.362" y="588.485">packet</tspan></text><text id="text2509" x="-107.362" y="625" fill="#000" fill-opacity="1" stroke="none" stroke-linecap="butt" stroke-linejoin="miter" stroke-opacity="1" stroke-width="1" font-family="Bitstream Vera Sans" font-size="18" font-style="normal" font-weight="normal" transform="matrix(0,-1,1,0,0,0)" xml:space="preserve"><tspan id="tspan2511" x="-107.362" y="625">packet</tspan></text><text id="text2513" x="-107.362" y="665" fill="#000" fill-opacity="1" stroke="none" stroke-linecap="butt" stroke-linejoin="miter" stroke-opacity="1" stroke-width="1" font-family="Bitstream Vera Sans" font-size="18" font-style="normal" font-weight="normal" transform="matrix(0,-1,1,0,0,0)" xml:space="preserve"><tspan id="tspan2515" x="-107.362" y="665">packet</tspan></text><text id="text2517" x="-107.362" y="702.475" fill="#000" fill-opacity="1" stroke="none" stroke-linecap="butt" stroke-linejoin="miter" stroke-opacity="1" stroke-width="1" font-family="Bitstream Vera Sans" font-size="18" font-style="normal" font-weight="normal" transform="matrix(0,-1,1,0,0,0)" xml:space="preserve"><tspan id="tspan2519" x="-107.362" y="702.475">packet</tspan></text></g><path id="path3299" fill="none" fill-rule="evenodd" stroke="#000" stroke-linecap="butt" stroke-linejoin="miter" stroke-opacity="1" stroke-width="1" d="M 360,132.36218 L 360,182.36218 L 330,172.36218 L 370,212.36218 L 410,172.36218 L 380,182.36218 L 380,132.36218 L 360,132.36218 z"/><g id="g3360" transform="translate(0,190)"><rect id="rect3362" width="30" height="90" x="20" y="32.362" fill="#5fd35f" stroke="none"/><rect id="rect3364" width="30" height="90" x="55" y="32.362" fill="#5fd35f"/><rect id="rect3366" width="40" height="90" x="90" y="32.362" fill="#5fd35f"/><rect id="rect3368" width="20" height="90" x="135" y="32.362" fill="#5fd35f"/><rect id="rect3370" width="40" height="90" x="160" y="32.362" fill="#5fd35f"/><rect id="rect3372" width="30" height="90" x="205" y="32.362" fill="#5fd35f"/><rect id="rect3374" width="25" height="90" x="240" y="32.362" fill="#5fd35f"/><rect id="rect3376" width="40" height="90" x="270" y="32.362" fill="#5fd35f"/><rect id="rect3378" width="35" height="90" x="315" y="32.362" fill="#5fd35f"/><rect id="rect3380" width="25" height="90" x="355" y="32.362" fill="#5fd35f"/><rect id="rect3382" width="30" height="90" x="385" y="32.362" fill="#5fd35f"/><rect id="rect3384" width="30" height="90" x="420" y="32.362" fill="#5fd35f"/><rect id="rect3386" width="35" height="90" x="455" y="32.362" fill="#5fd35f"/><rect id="rect3388" width="35" height="90" x="495" y="32.362" fill="#5fd35f"/><rect id="rect3390" width="30" height="90" x="535" y="32.362" fill="#5fd35f"/><rect id="rect3392" width="25" height="90" x="570" y="32.362" fill="#5fd35f"/><rect id="rect3394" width="40" height="90" x="600" y="32.362" fill="#5fd35f"/><rect id="rect3396" width="30" height="90" x="645" y="32.362" fill="#5fd35f"/><rect id="rect3398" width="35" height="90" x="680" y="32.362" fill="#5fd35f"/><text id="text3400" x="-107.362" y="40" fill="#000" fill-opacity="1" stroke="none" stroke-linecap="butt" stroke-linejoin="miter" stroke-opacity="1" stroke-width="1" font-family="Bitstream Vera Sans" font-size="18" font-style="normal" font-weight="normal" transform="matrix(0,-1,1,0,0,0)" xml:space="preserve"><tspan id="tspan3402" x="-107.362" y="40">packet</tspan></text><text id="text3404" x="-107.362" y="75" fill="#000" fill-opacity="1" stroke="none" stroke-linecap="butt" stroke-linejoin="miter" stroke-opacity="1" stroke-width="1" font-family="Bitstream Vera Sans" font-size="18" font-style="normal" font-weight="normal" transform="matrix(0,-1,1,0,0,0)" xml:space="preserve"><tspan id="tspan3406" x="-107.362" y="75">packet</tspan></text><text id="text3408" x="-107.362" y="115" fill="#000" fill-opacity="1" stroke="none" stroke-linecap="butt" stroke-linejoin="miter" stroke-opacity="1" stroke-width="1" font-family="Bitstream Vera Sans" font-size="18" font-style="normal" font-weight="normal" transform="matrix(0,-1,1,0,0,0)" xml:space="preserve"><tspan id="tspan3410" x="-107.362" y="115">packet</tspan></text><text id="text3412" x="-107.362" y="150" fill="#000" fill-opacity="1" stroke="none" stroke-linecap="butt" stroke-linejoin="miter" stroke-opacity="1" stroke-width="1" font-family="Bitstream Vera Sans" font-size="18" font-style="normal" font-weight="normal" transform="matrix(0,-1,1,0,0,0)" xml:space="preserve"><tspan id="tspan3414" x="-107.362" y="150">packet</tspan></text><text id="text3416" x="-107.362" y="185" fill="#000" fill-opacity="1" stroke="none" stroke-linecap="butt" stroke-linejoin="miter" stroke-opacity="1" stroke-width="1" font-family="Bitstream Vera Sans" font-size="18" font-style="normal" font-weight="normal" transform="matrix(0,-1,1,0,0,0)" xml:space="preserve"><tspan id="tspan3418" x="-107.362" y="185">packet</tspan></text><text id="text3420" x="-107.362" y="225" fill="#000" fill-opacity="1" stroke="none" stroke-linecap="butt" stroke-linejoin="miter" stroke-opacity="1" stroke-width="1" font-family="Bitstream Vera Sans" font-size="18" font-style="normal" font-weight="normal" transform="matrix(0,-1,1,0,0,0)" xml:space="preserve"><tspan id="tspan3422" x="-107.362" y="225">packet</tspan></text><text id="text3424" x="-107.362" y="258.03" fill="#000" fill-opacity="1" stroke="none" stroke-linecap="butt" stroke-linejoin="miter" stroke-opacity="1" stroke-width="1" font-family="Bitstream Vera Sans" font-size="18" font-style="normal" font-weight="normal" transform="matrix(0,-1,1,0,0,0)" xml:space="preserve"><tspan id="tspan3426" x="-107.362" y="258.03">packet</tspan></text><text id="text3428" x="-107.362" y="295" fill="#000" fill-opacity="1" stroke="none" stroke-linecap="butt" stroke-linejoin="miter" stroke-opacity="1" stroke-width="1" font-family="Bitstream Vera Sans" font-size="18" font-style="normal" font-weight="normal" transform="matrix(0,-1,1,0,0,0)" xml:space="preserve"><tspan id="tspan3430" x="-107.362" y="295">packet</tspan></text><text id="text3432" x="-107.362" y="338.485" fill="#000" fill-opacity="1" stroke="none" stroke-linecap="butt" stroke-linejoin="miter" stroke-opacity="1" stroke-width="1" font-family="Bitstream Vera Sans" font-size="18" font-style="normal" font-weight="normal" transform="matrix(0,-1,1,0,0,0)" xml:space="preserve"><tspan id="tspan3434" x="-107.362" y="338.485">packet</tspan></text><text id="text3436" x="-107.362" y="373.485" fill="#000" fill-opacity="1" stroke="none" stroke-linecap="butt" stroke-linejoin="miter" stroke-opacity="1" stroke-width="1" font-family="Bitstream Vera Sans" font-size="18" font-style="normal" font-weight="normal" transform="matrix(0,-1,1,0,0,0)" xml:space="preserve"><tspan id="tspan3438" x="-107.362" y="373.485">packet</tspan></text><text id="text3440" x="-107.362" y="405" fill="#000" fill-opacity="1" stroke="none" stroke-linecap="butt" stroke-linejoin="miter" stroke-opacity="1" stroke-width="1" font-family="Bitstream Vera Sans" font-size="18" font-style="normal" font-weight="normal" transform="matrix(0,-1,1,0,0,0)" xml:space="preserve"><tspan id="tspan3442" x="-107.362" y="405">packet</tspan></text><text id="text3444" x="-107.362" y="440" fill="#000" fill-opacity="1" stroke="none" stroke-linecap="butt" stroke-linejoin="miter" stroke-opacity="1" stroke-width="1" font-family="Bitstream Vera Sans" font-size="18" font-style="normal" font-weight="normal" transform="matrix(0,-1,1,0,0,0)" xml:space="preserve"><tspan id="tspan3446" x="-107.362" y="440">packet</tspan></text><text id="text3448" x="-107.362" y="478.03" fill="#000" fill-opacity="1" stroke="none" stroke-linecap="butt" stroke-linejoin="miter" stroke-opacity="1" stroke-width="1" font-family="Bitstream Vera Sans" font-size="18" font-style="normal" font-weight="normal" transform="matrix(0,-1,1,0,0,0)" xml:space="preserve"><tspan id="tspan3450" x="-107.362" y="478.03">packet</tspan></text><text id="text3452" x="-107.362" y="518.03" fill="#000" fill-opacity="1" stroke="none" stroke-linecap="butt" stroke-linejoin="miter" stroke-opacity="1" stroke-width="1" font-family="Bitstream Vera Sans" font-size="18" font-style="normal" font-weight="normal" transform="matrix(0,-1,1,0,0,0)" xml:space="preserve"><tspan id="tspan3454" x="-107.362" y="518.03">packet</tspan></text><text id="text3456" x="-107.362" y="555" fill="#000" fill-opacity="1" stroke="none" stroke-linecap="butt" stroke-linejoin="miter" stroke-opacity="1" stroke-width="1" font-family="Bitstream Vera Sans" font-size="18" font-style="normal" font-weight="normal" transform="matrix(0,-1,1,0,0,0)" xml:space="preserve"><tspan id="tspan3458" x="-107.362" y="555">packet</tspan></text><text id="text3460" x="-107.362" y="588.485" fill="#000" fill-opacity="1" stroke="none" stroke-linecap="butt" stroke-linejoin="miter" stroke-opacity="1" stroke-width="1" font-family="Bitstream Vera Sans" font-size="18" font-style="normal" font-weight="normal" transform="matrix(0,-1,1,0,0,0)" xml:space="preserve"><tspan id="tspan3462" x="-107.362" y="588.485">packet</tspan></text><text id="text3464" x="-107.362" y="625" fill="#000" fill-opacity="1" stroke="none" stroke-linecap="butt" stroke-linejoin="miter" stroke-opacity="1" stroke-width="1" font-family="Bitstream Vera Sans" font-size="18" font-style="normal" font-weight="normal" transform="matrix(0,-1,1,0,0,0)" xml:space="preserve"><tspan id="tspan3466" x="-107.362" y="625">packet</tspan></text><text id="text3468" x="-107.362" y="665" fill="#000" fill-opacity="1" stroke="none" stroke-linecap="butt" stroke-linejoin="miter" stroke-opacity="1" stroke-width="1" font-family="Bitstream Vera Sans" font-size="18" font-style="normal" font-weight="normal" transform="matrix(0,-1,1,0,0,0)" xml:space="preserve"><tspan id="tspan3470" x="-107.362" y="665">packet</tspan></text><text id="text3472" x="-107.362" y="702.475" fill="#000" fill-opacity="1" stroke="none" stroke-linecap="butt" stroke-linejoin="miter" stroke-opacity="1" stroke-width="1" font-family="Bitstream Vera Sans" font-size="18" font-style="normal" font-weight="normal" transform="matrix(0,-1,1,0,0,0)" xml:space="preserve"><tspan id="tspan3474" x="-107.362" y="702.475">packet</tspan></text></g><text id="text13982" x="540" y="152.362" fill="#000" fill-opacity="1" stroke="none" stroke-linecap="butt" stroke-linejoin="miter" stroke-opacity="1" stroke-width="1" font-family="Bitstream Vera Sans" font-size="24" font-style="normal" font-weight="normal" xml:space="preserve"><tspan id="tspan13984" x="540" y="152.362">packet stream</tspan></text><text id="text13986" x="390" y="342.362" fill="#000" fill-opacity="1" stroke="none" stroke-linecap="butt" stroke-linejoin="miter" stroke-opacity="1" stroke-width="1" font-family="Bitstream Vera Sans" font-size="24" font-style="normal" font-weight="normal" xml:space="preserve"><tspan id="tspan13988" x="390" y="342.362">unframed logical bitstream</tspan></text></g></svg>