<svg xmlns="http://www.w3.org/2000/svg" xmlns:xlink="http://www.w3.org/1999/xlink" id="Layer_1" width="70" height="70" x="0" y="0" enable-background="new 0 0 70 70" version="1.1" viewBox="0 0 70 70" xml:space="preserve"><g><g><g><linearGradient id="SVGID_1_" x1="8.063" x2="29.26" y1="16.141" y2="69.757" gradientUnits="userSpaceOnUse"><stop offset=".22" stop-color="#C40B55"/><stop offset=".683" stop-color="#E343E6"/><stop offset=".925" stop-color="#F59252"/></linearGradient><polygon fill="url(#SVGID_1_)" points="20.2 15.2 34 36.7 11.6 70 0 23.1"/><linearGradient id="SVGID_2_" x1="875.719" x2="927.556" y1="73.292" y2="18.152" gradientTransform="matrix(-1 0 0 1 928 -2.064169e-004)" gradientUnits="userSpaceOnUse"><stop offset=".113" stop-color="#FFBD00"/><stop offset=".586" stop-color="#E343E6"/><stop offset=".817" stop-color="#EC841B"/><stop offset=".935" stop-color="#FFBD00"/></linearGradient><polygon fill="url(#SVGID_2_)" points="18.9 15.7 21 0 51.2 33.6 42.4 42.3 49.2 70 11.6 70"/></g><linearGradient id="SVGID_3_" x1="25.5" x2="69.96" y1="-1.93" y2="51.168" gradientUnits="userSpaceOnUse"><stop offset=".129" stop-color="#FFBD00"/><stop offset=".64" stop-color="#E343E6"/><stop offset=".909" stop-color="#C40B55"/></linearGradient><polygon fill="url(#SVGID_3_)" points="35.3 47.1 70 47.1 58.4 0 21 0"/></g><g><g><rect width="43.2" height="43.2" x="13.4" y="13.4" fill="#000"/><path fill="#FFF" d="M17.4,19h8.2c2.3,0,4,0.6,5.2,1.8c1,1,1.5,2.4,1.5,4.1V25c0,1.5-0.4,2.6-1.1,3.5 c-0.7,0.9-1.6,1.6-2.8,2l4.4,6.4h-4.6l-3.7-5.5h-3.3l0,5.5h-3.9V19z M25.4,27.7c1,0,1.7-0.2,2.2-0.7c0.5-0.5,0.8-1.1,0.8-1.8 v-0.1c0-0.9-0.3-1.5-0.8-1.9c-0.5-0.4-1.3-0.6-2.3-0.6h-3.9v5.1H25.4z"/><rect width="16.2" height="2.7" x="17.4" y="48.5" fill="#FFF"/></g><g><path fill="#FFF" d="M43.7,24.4h-4v-3.6h4v-4h3.7v4h4v3.6h-4v4h-3.7V24.4z"/></g><g><path fill="#FFF" d="M37.1,34.6h-4V31h4v-4h3.7v4h4v3.6h-4v4h-3.7V34.6z"/></g></g></g></svg>